<svg xmlns="http://www.w3.org/2000/svg" viewBox="0 0 512 512" width="512" height="512">
  <!-- Background circle -->
  <circle cx="256" cy="256" r="256" fill="#16a34a"/>
  
  <!-- Bin body -->
  <rect x="150" y="180" width="212" height="280" rx="8" fill="white"/>
  
  <!-- Bin lid -->
  <rect x="140" y="160" width="232" height="30" rx="6" fill="white"/>
  
  <!-- Bin handle -->
  <rect x="220" y="140" width="72" height="15" rx="7" fill="white"/>
  
  <!-- Decorative lines on bin -->
  <rect x="170" y="220" width="172" height="3" fill="#16a34a"/>
  <rect x="170" y="280" width="172" height="3" fill="#16a34a"/>
  <rect x="170" y="340" width="172" height="3" fill="#16a34a"/>
  
  <!-- Small recycling symbol -->
  <g transform="translate(256, 320) scale(0.8)">
    <path d="M-20,-15 L-10,-15 L0,-35 L10,-15 L20,-15 L10,5 L-10,5 Z" fill="#16a34a"/>
    <path d="M15,-10 L25,-10 L35,-30 L45,-10 L55,-10 L45,10 L25,10 Z" fill="#16a34a" transform="rotate(120)"/>
    <path d="M15,-10 L25,-10 L35,-30 L45,-10 L55,-10 L45,10 L25,10 Z" fill="#16a34a" transform="rotate(240)"/>
  </g>
</svg>
