<?xml version="1.0" encoding="utf-8"?>
<svg version="1.1" xmlns="http://www.w3.org/2000/svg" viewBox="0 0 1024 1536" xmlns:bx="https://boxy-svg.com">
  <defs>
    <bx:export>
      <bx:file format="svg" href="#object-0"/>
    </bx:export>
  </defs>
  <path d="M0 0 C5.28945447 3.15580961 9.33719372 7.27659265 11.64453125 13.0546875 C11.88208411 15.57809549 12.01685583 18.00079028 12.05859375 20.52734375 C12.07800522 21.27115799 12.09741669 22.01497223 12.11741638 22.78132629 C12.17802061 25.22649615 12.22420909 27.67169026 12.26953125 30.1171875 C12.30749682 31.81071785 12.3458312 33.50423996 12.38452148 35.19775391 C12.74842701 52.15125896 12.71460163 69.09765634 12.64453125 86.0546875 C36.89953125 86.5496875 36.89953125 86.5496875 61.64453125 87.0546875 C62.63453125 85.0746875 62.63453125 85.0746875 63.64453125 83.0546875 C65.265625 81.60546875 65.265625 81.60546875 67.08203125 80.3671875 C67.97728516 79.74263672 67.97728516 79.74263672 68.890625 79.10546875 C72.76736818 76.78287651 76.47073591 76.91211711 80.83173656 76.92325974 C81.572309 76.9212071 82.31288143 76.91915447 83.07589546 76.91703963 C85.57715863 76.91134952 88.07836709 76.91282936 90.57963562 76.91424561 C92.38318645 76.91166312 94.18673671 76.90865028 95.99028617 76.9052422 C100.9619554 76.8971552 105.93361021 76.89538169 110.90528524 76.89464474 C116.26126773 76.89279712 121.61724268 76.88525124 126.97322083 76.87850952 C138.69221383 76.86491335 150.41120343 76.85889941 162.13020301 76.85449886 C169.44459401 76.85173847 176.75898369 76.84750148 184.07337379 76.84299469 C204.31583288 76.83080009 224.55829091 76.82050132 244.80075359 76.8171196 C246.09694946 76.81690003 247.39314533 76.81668047 248.72861986 76.81645425 C250.02795911 76.81623597 251.32729835 76.81601769 252.66601151 76.8157928 C255.29906952 76.81534933 257.93212754 76.81490277 260.56518555 76.81445312 C261.87127983 76.8142317 263.17737411 76.81401027 264.52304701 76.81378213 C285.68887528 76.8098337 306.85466914 76.79237915 328.02048411 76.7690936 C349.73945743 76.74539194 371.45841347 76.73291828 393.17739993 76.73175168 C405.37647647 76.73083422 417.57550817 76.72506421 429.77457237 76.70693207 C440.16220753 76.69154705 450.549784 76.68640115 460.93742838 76.69467017 C466.23860708 76.6985824 471.53966753 76.6976191 476.84083176 76.68361282 C481.69362565 76.67090832 486.54621204 76.67204107 491.39900551 76.68420354 C493.15476858 76.68616653 494.91054618 76.68305439 496.66628882 76.67435917 C499.05381756 76.66328353 501.44061176 76.67074314 503.82812023 76.6827507 C504.84936471 76.67135791 504.84936471 76.67135791 505.89124039 76.65973496 C510.85985326 76.71363942 515.25897607 77.73651379 519.64453125 80.0546875 C520.80988403 81.36312622 520.80988403 81.36312622 521.9987793 82.69799805 C526.00506842 86.26657873 529.7797802 85.78304042 534.9765625 85.76171875 C535.96830978 85.77684006 536.96005707 85.79196136 537.9818573 85.80754089 C541.1404797 85.85042952 544.29814664 85.85925725 547.45703125 85.8671875 C549.60223896 85.89033082 551.74742394 85.91569581 553.89257812 85.94335938 C559.14323822 86.00622276 564.39352477 86.04114794 569.64453125 86.0546875 C569.63786942 85.18295898 569.63120758 84.31123047 569.62434387 83.41308594 C569.56408803 75.17456697 569.51848347 66.93612264 569.48909473 58.69743347 C569.47347745 54.46241816 569.45231171 50.22758582 569.41821289 45.99267578 C569.38547818 41.90130835 569.36764865 37.81011628 569.35989952 33.71862793 C569.35438123 32.16220339 569.34360556 30.60578782 569.32734108 29.04943848 C569.14888498 11.25595146 569.14888498 11.25595146 574.328125 5.03125 C574.90691406 4.58523437 575.48570312 4.13921875 576.08203125 3.6796875 C576.65824219 3.21820313 577.23445312 2.75671875 577.828125 2.28125 C583.34314003 -1.44286767 588.08448502 -1.6549985 594.64453125 -0.9453125 C600.08061016 0.52289343 604.11542944 3.68316824 607.38278198 8.21841431 C609.97613053 14.04797581 609.50738944 20.65239468 609.49647713 26.93376732 C609.49212298 29.63772142 609.52409085 32.33917665 609.56504822 35.0428009 C609.64511878 40.77584952 609.67788458 46.50868964 609.70703125 52.2421875 C609.74525465 58.89959246 609.80296552 65.55605525 609.89941216 72.2128849 C609.92926655 74.87265341 609.92891872 77.53129956 609.92701721 80.19120789 C609.94613449 81.82304538 609.96656663 83.45486819 609.98852539 85.08666992 C609.97982422 85.82288574 609.97112305 86.55910156 609.9621582 87.31762695 C610.04874202 91.26512407 610.49704407 92.88042641 613.08396912 95.93696594 C614.35144737 96.98523811 614.35144737 96.98523811 615.64453125 98.0546875 C626.86962304 110.84481612 629.64453125 125.32800291 629.64453125 142.0546875 C646.14453125 142.0546875 662.64453125 142.0546875 679.64453125 142.0546875 C679.89763371 150.13756151 680.13767899 158.20577629 680.26553345 166.28917694 C680.32843315 170.05432244 680.41215248 173.81612856 680.54980469 177.5793457 C681.57942995 206.48080401 681.57942995 206.48080401 673.91796875 215.19921875 C672.3864517 216.75511245 670.82163907 218.21696298 669.17074585 219.64503479 C666.57462358 222.0428829 664.61595063 224.84071285 662.51953125 227.6796875 C661.7013296 228.75291463 660.88100553 229.82452691 660.05859375 230.89453125 C658.86363281 232.45880859 658.86363281 232.45880859 657.64453125 234.0546875 C646.96134006 247.98542684 636.18291917 261.84182057 625.33984375 275.6484375 C624.92845154 276.18676208 624.51705933 276.72508667 624.09320068 277.27972412 C622.64453125 279.0546875 622.64453125 279.0546875 620.70025635 281.02935791 C613.99318517 288.26897439 613.20198362 295.13778152 612.68359375 304.5703125 C612.56874888 306.16097918 612.4506076 307.75141061 612.32951355 309.34161377 C612.07211304 312.81412571 611.83773995 316.28718151 611.62075806 319.76245117 C611.26672443 325.42830811 610.86245219 331.0899496 610.4519043 336.75195312 C609.91808879 344.16739047 609.39843291 351.58362294 608.89328289 359.00106812 C607.71148101 376.34230405 606.42657633 393.67525729 605.125 411.0078125 C605.0427118 412.10402467 605.0427118 412.10402467 604.95876122 413.22238255 C604.45714696 419.90460163 603.9552879 426.5868023 603.45279312 433.26895523 C602.74459774 442.69163834 602.04455019 452.114895 601.35067499 461.538643 C599.34249376 488.80672093 597.30119633 516.06985789 594.95906067 543.31176758 C593.87231556 555.98900861 592.93850956 568.67238557 592.08203125 581.3671875 C591.9535754 583.26132334 591.82502586 585.15545282 591.69638062 587.04957581 C591.61110139 588.30724683 591.61110139 588.30724683 591.52409935 589.59032536 C590.8139425 600.00143562 589.95386815 610.39326625 589.0241394 620.78674316 C587.71026605 635.55027325 586.67844533 650.33179016 585.64453125 665.1171875 C584.5941767 680.12891041 583.53317327 695.1326162 582.14453125 710.1171875 C580.72184344 725.49553542 579.61711616 740.89217411 578.52105713 756.29690552 C577.52292537 770.29926468 576.4835949 784.2972121 575.34765625 798.2890625 C575.29250225 798.96885918 575.23734825 799.64865585 575.18052292 800.34905243 C574.5921947 807.59232112 573.99657209 814.83496481 573.39501953 822.07714844 C572.23352199 836.1540945 571.22016889 850.23135623 570.33674622 864.32781982 C569.75790712 873.50262291 569.05188591 882.65080899 568.20703125 891.8046875 C566.83460276 907.08839791 565.74289638 922.38650123 564.73461914 937.69824219 C564.1016044 947.19841759 563.32582217 956.66952142 562.39367676 966.14505005 C561.44890821 975.85278318 560.75095642 985.57461809 560.08203125 995.3046875 C560.017276 996.23203705 559.95252075 997.1593866 559.88580322 998.11483765 C559.03417547 1010.3457204 558.28455772 1022.56591085 557.93530273 1034.82324219 C557.80156366 1039.32701816 557.53872544 1043.62036385 556.64453125 1048.0546875 C558.62453125 1048.0546875 560.60453125 1048.0546875 562.64453125 1048.0546875 C564.19275948 1040.5398761 565.02568972 1033.22184131 565.35546875 1025.5625 C565.46703785 1023.36977076 565.57903096 1021.17706307 565.69140625 1018.984375 C565.85698113 1015.5978817 566.01810458 1012.21131359 566.17089844 1008.82421875 C568.35567756 961.34354119 568.35567756 961.34354119 579.64453125 950.0546875 C583.45184643 947.42015099 587.61479287 947.74874084 592.06640625 947.75390625 C593.29463104 947.74747856 593.29463104 947.74747856 594.54766846 947.74092102 C596.27916542 947.73518506 598.01068648 947.73467206 599.7421875 947.73901367 C602.37152074 947.74215997 604.99971315 947.71875387 607.62890625 947.69335938 C609.31640484 947.69108471 611.00390643 947.69038366 612.69140625 947.69140625 C613.46877136 947.6821965 614.24613647 947.67298676 615.04705811 947.66349792 C621.22511956 947.71499426 626.73652352 948.84842935 631.78125 952.67578125 C655.66332976 980.64849432 651.05304735 1035.76211183 650.96218491 1070.09823227 C650.95693224 1072.21967617 650.95502878 1074.34110533 650.95352173 1076.46255493 C650.92678287 1098.11993406 650.23452264 1119.53548931 647.64453125 1141.0546875 C647.4136754 1143.17704126 647.1831844 1145.29943476 646.953125 1147.421875 C642.76561281 1183.7055789 642.76561281 1183.7055789 631.14453125 1195.6171875 C623.85620049 1199.80797769 615.89319365 1200.23720287 607.64453125 1200.1796875 C606.91194092 1200.17485352 606.17935059 1200.17001953 605.42456055 1200.16503906 C603.16414812 1200.14071001 600.90459385 1200.10100228 598.64453125 1200.0546875 C597.93506348 1200.04211914 597.2255957 1200.02955078 596.49462891 1200.01660156 C594.48138947 1199.97029847 592.46907446 1199.88810884 590.45703125 1199.8046875 C588.70326172 1199.73507812 588.70326172 1199.73507812 586.9140625 1199.6640625 C582.07528661 1198.7622118 578.95649493 1196.65819866 575.8515625 1192.86328125 C568.95726109 1181.14103768 567.47710264 1168.32196539 565.64453125 1155.0546875 C565.49951172 1154.00595459 565.49951172 1154.00595459 565.3515625 1152.93603516 C563.93491124 1142.3291155 563.21880814 1131.66564031 562.51953125 1120.9921875 C562.45268631 1119.98291199 562.45268631 1119.98291199 562.38449097 1118.95324707 C561.90601133 1111.64178364 561.53216954 1104.38227626 561.64453125 1097.0546875 C558.67453125 1097.0546875 555.70453125 1097.0546875 552.64453125 1097.0546875 C552.6604834 1098.07449707 552.67643555 1099.09430664 552.69287109 1100.14501953 C552.79892075 1110.05585517 552.3702113 1119.81773311 551.47265625 1129.68652344 C551.26776962 1131.94914168 551.07651504 1134.21263338 550.88671875 1136.4765625 C548.9427782 1159.00786876 543.52706084 1178.86632432 525.64453125 1194.0546875 C512.94138858 1204.26614545 499.53790314 1210.36658415 483.25804138 1210.32643127 C482.11625823 1210.33151811 480.97447507 1210.33660495 479.79809242 1210.34184593 C475.97139909 1210.35650656 472.14483468 1210.35704041 468.31811523 1210.35766602 C465.56994945 1210.36422393 462.82179606 1210.37378519 460.07363892 1210.38323975 C454.13930357 1210.40211897 448.20498877 1210.41382416 442.27062798 1210.42077827 C433.59699344 1210.43103185 424.92341907 1210.45316741 416.24981595 1210.47816419 C402.05238045 1210.51883378 387.854939 1210.55122263 373.6574707 1210.57788086 C342.82166615 1210.63584504 311.98590021 1210.70909222 281.15014707 1210.78977264 C276.31072643 1210.80240927 271.47130497 1210.8146367 266.63188251 1210.82655374 C223.09529194 1210.93404501 179.56443024 1211.16506139 136.03158283 1211.78822613 C130.49348183 1211.86722435 124.95531579 1211.93974605 119.4170723 1212.00800705 C116.90608943 1212.0390773 114.39512952 1212.07206317 111.88419724 1212.10698318 C108.41034857 1212.15204133 104.9366816 1212.18298346 101.46264648 1212.20922852 C99.97743925 1212.23168719 99.97743925 1212.23168719 98.46222782 1212.25459957 C80.57461419 1212.33183194 64.71502928 1202.9629778 52.2578125 1190.69140625 C51.39542969 1189.82128906 50.53304687 1188.95117188 49.64453125 1188.0546875 C48.97808594 1187.42175781 48.31164062 1186.78882813 47.625 1186.13671875 C43.61998514 1182.04129723 40.96334153 1177.34605496 38.33203125 1172.3046875 C37.99397461 1171.67344971 37.65591797 1171.04221191 37.30761719 1170.3918457 C32.18920792 1160.05520003 32.12098153 1147.85001221 31.08203125 1136.5546875 C30.9554532 1135.21741236 30.82850133 1133.88017255 30.70117188 1132.54296875 C30.34022455 1128.71428138 29.98965112 1124.88483143 29.64453125 1121.0546875 C29.54229248 1119.9315918 29.44005371 1118.80849609 29.3347168 1117.65136719 C28.88418449 1112.52223011 28.52067457 1107.45864838 28.58203125 1102.3046875 C28.59105469 1101.29921875 28.60007812 1100.29375 28.609375 1099.2578125 C28.62097656 1098.53078125 28.63257813 1097.80375 28.64453125 1097.0546875 C25.67453125 1097.0546875 22.70453125 1097.0546875 19.64453125 1097.0546875 C19.6909375 1098.3953125 19.73734375 1099.7359375 19.78515625 1101.1171875 C20.10064607 1115.00602019 19.25588738 1128.62062953 17.89453125 1142.4296875 C17.81593872 1143.26097168 17.73734619 1144.09225586 17.65637207 1144.94873047 C13.66830495 1186.5558554 13.66830495 1186.5558554 2.64453125 1197.0546875 C-8.36776189 1202.69513033 -30.41844461 1201.91871454 -42.35546875 1198.8515625 C-49.5172682 1195.99803303 -52.87001954 1190.35504589 -56.01171875 1183.5703125 C-58.56296557 1176.89553884 -60.0108034 1170.05776647 -61.35546875 1163.0546875 C-61.49049805 1162.38775879 -61.62552734 1161.72083008 -61.76464844 1161.03369141 C-67.59965561 1131.66415529 -67.8482123 1101.09075814 -67.67803955 1071.26245117 C-67.66450681 1068.04379127 -67.66990323 1064.82526699 -67.67490101 1061.60659122 C-67.70204388 1038.48849479 -67.25155923 1015.36697427 -63.54296875 992.4921875 C-63.37265137 991.42556885 -63.20233398 990.3589502 -63.02685547 989.26000977 C-60.7258824 975.53183699 -58.27085087 961.58395342 -47.79296875 951.6171875 C-42.18997325 948.02552372 -37.39127422 947.69982675 -30.890625 947.61328125 C-29.97969589 947.59950943 -29.06876678 947.58573761 -28.13023376 947.57154846 C-26.20805895 947.54832875 -24.28580454 947.53103679 -22.36352539 947.51928711 C-19.43031113 947.49230105 -16.5006701 947.41733765 -13.56835938 947.34179688 C-11.69663874 947.32514311 -9.82488974 947.31137546 -7.953125 947.30078125 C-7.08107925 947.27092636 -6.20903351 947.24107147 -5.31056213 947.21031189 C-1.72026313 947.23612655 0.67612915 947.2665581 3.52537537 949.58540344 C19.0150118 967.37075426 16.32050823 1000.50401262 17.91479492 1022.84130859 C17.99705322 1023.97777832 18.07931152 1025.11424805 18.1640625 1026.28515625 C18.23214111 1027.26250732 18.30021973 1028.2398584 18.37036133 1029.24682617 C18.74573414 1033.09113849 19.45311042 1036.83883302 20.2421875 1040.6171875 C20.65853974 1043.13955448 20.71288108 1045.50296062 20.64453125 1048.0546875 C21.96453125 1047.7246875 23.28453125 1047.3946875 24.64453125 1047.0546875 C24.58633209 1046.24656113 24.52813293 1045.43843475 24.46817017 1044.6058197 C23.908436 1036.83071654 23.34984176 1029.05553257 22.79239845 1021.28026485 C22.50606528 1017.28697986 22.219354 1013.29372292 21.93164062 1009.30053711 C21.59773628 1004.66528905 21.26505629 1000.02995456 20.93359375 995.39453125 C20.87786697 994.61532885 20.8221402 993.83612644 20.76472473 993.03331184 C20.03533276 982.81127276 19.35359714 972.58753768 18.71484375 962.359375 C17.39683451 941.45443205 15.75853404 920.57218906 14.15834427 899.6873436 C13.89034874 896.18756774 13.62305231 892.68773907 13.35592651 889.18789673 C11.20628411 861.03378632 9.01594227 832.88368863 6.70703125 804.7421875 C4.16630915 773.76936165 1.73336163 742.78862628 -0.66796875 711.8046875 C-0.76269344 710.58273682 -0.85741814 709.36078613 -0.95501328 708.10180664 C-4.23421363 665.79082506 -7.46625968 623.47627503 -10.68164062 581.16040039 C-12.88688712 552.13938122 -15.12509146 523.12193083 -17.4659729 494.11154175 C-18.96333778 475.51354469 -20.28182492 456.90756615 -21.52819824 438.29119873 C-23.19883573 413.41922738 -25.18999349 388.576032 -27.20361328 363.72998047 C-27.39481557 361.37061546 -27.58601469 359.0112502 -27.77717972 356.65188217 C-27.90182366 355.11366262 -28.02651558 353.57544695 -28.15125656 352.03723526 C-29.39208505 336.72680823 -30.55831739 321.41138232 -31.66174316 306.09042358 C-31.80396554 304.16256186 -31.95741172 302.23553759 -32.11157227 300.30859375 C-32.25992778 298.32933222 -32.3779984 296.34708969 -32.44116211 294.36328125 C-32.75656305 288.14181728 -35.19508894 284.86365084 -39.29296875 280.3046875 C-40.48844823 278.90750565 -41.68244283 277.509052 -42.875 276.109375 C-43.46748535 275.42456055 -44.0599707 274.73974609 -44.67041016 274.03417969 C-47.04587734 271.24364246 -49.27120128 268.35236426 -51.48046875 265.4296875 C-56.25165109 259.17859076 -61.10132076 252.99272402 -65.96875 246.81640625 C-67.33964557 245.07478962 -68.70746866 243.33080865 -70.07421875 241.5859375 C-75.78583396 234.29654505 -81.54286015 227.04513514 -87.3359375 219.8203125 C-87.99822357 218.96808861 -87.99822357 218.96808861 -88.67388916 218.09864807 C-90.34853663 215.99913239 -90.34853663 215.99913239 -92.37287903 214.01828003 C-99.0624309 206.84304685 -99.43797031 200.77962719 -99.13671875 191.296875 C-99.12176333 189.89872505 -99.11039193 188.50053263 -99.10241699 187.10232544 C-99.07213862 183.45487928 -98.99380297 179.8100574 -98.90478516 176.16363525 C-98.82235673 172.42977018 -98.78584425 168.69546054 -98.74609375 164.9609375 C-98.66502397 157.65655067 -98.50844558 150.3593313 -98.35546875 143.0546875 C-81.85546875 143.0546875 -65.35546875 143.0546875 -48.35546875 143.0546875 C-48.35546875 138.7646875 -48.35546875 134.4746875 -48.35546875 130.0546875 C-46.72971927 115.70164211 -39.85406519 102.8690577 -29.35546875 93.0546875 C-28.69546875 92.7246875 -28.03546875 92.3946875 -27.35546875 92.0546875 C-27.35182312 91.053237 -27.34817749 90.0517865 -27.34442139 89.01998901 C-27.30745108 79.57389989 -27.24965616 70.12813615 -27.17156601 60.68229485 C-27.13208729 55.82626892 -27.09990074 50.97042443 -27.08447266 46.11425781 C-27.06930869 41.42616271 -27.03486775 36.73856643 -26.98715973 32.05069351 C-26.97234325 30.26381902 -26.96442758 28.47687331 -26.9635849 26.68993759 C-26.96121425 24.18321549 -26.93412824 21.67787079 -26.90136719 19.17138672 C-26.90891273 18.06762947 -26.90891273 18.06762947 -26.91661072 16.9415741 C-26.81402519 11.85540348 -25.5263124 8.98935527 -22.35546875 5.0546875 C-15.8768783 -0.77604391 -8.52111554 -3.41975118 0 0 Z " transform="translate(222.35546875,153.9453125)" style="fill: rgb(95, 95, 95);"/>
  <path d="M0 0 C5.28945447 3.15580961 9.33719372 7.27659265 11.64453125 13.0546875 C11.88208411 15.57809549 12.01685583 18.00079028 12.05859375 20.52734375 C12.07800522 21.27115799 12.09741669 22.01497223 12.11741638 22.78132629 C12.17802061 25.22649615 12.22420909 27.67169026 12.26953125 30.1171875 C12.30749682 31.81071785 12.3458312 33.50423996 12.38452148 35.19775391 C12.74842701 52.15125896 12.71460163 69.09765634 12.64453125 86.0546875 C36.89953125 86.5496875 36.89953125 86.5496875 61.64453125 87.0546875 C62.63453125 85.0746875 62.63453125 85.0746875 63.64453125 83.0546875 C65.265625 81.60546875 65.265625 81.60546875 67.08203125 80.3671875 C67.97728516 79.74263672 67.97728516 79.74263672 68.890625 79.10546875 C72.76736818 76.78287651 76.47073591 76.91211711 80.83173656 76.92325974 C81.572309 76.9212071 82.31288143 76.91915447 83.07589546 76.91703963 C85.57715863 76.91134952 88.07836709 76.91282936 90.57963562 76.91424561 C92.38318645 76.91166312 94.18673671 76.90865028 95.99028617 76.9052422 C100.9619554 76.8971552 105.93361021 76.89538169 110.90528524 76.89464474 C116.26126773 76.89279712 121.61724268 76.88525124 126.97322083 76.87850952 C138.69221383 76.86491335 150.41120343 76.85889941 162.13020301 76.85449886 C169.44459401 76.85173847 176.75898369 76.84750148 184.07337379 76.84299469 C204.31583288 76.83080009 224.55829091 76.82050132 244.80075359 76.8171196 C246.09694946 76.81690003 247.39314533 76.81668047 248.72861986 76.81645425 C250.02795911 76.81623597 251.32729835 76.81601769 252.66601151 76.8157928 C255.29906952 76.81534933 257.93212754 76.81490277 260.56518555 76.81445312 C261.87127983 76.8142317 263.17737411 76.81401027 264.52304701 76.81378213 C285.68887528 76.8098337 306.85466914 76.79237915 328.02048411 76.7690936 C349.73945743 76.74539194 371.45841347 76.73291828 393.17739993 76.73175168 C405.37647647 76.73083422 417.57550817 76.72506421 429.77457237 76.70693207 C440.16220753 76.69154705 450.549784 76.68640115 460.93742838 76.69467017 C466.23860708 76.6985824 471.53966753 76.6976191 476.84083176 76.68361282 C481.69362565 76.67090832 486.54621204 76.67204107 491.39900551 76.68420354 C493.15476858 76.68616653 494.91054618 76.68305439 496.66628882 76.67435917 C499.05381756 76.66328353 501.44061176 76.67074314 503.82812023 76.6827507 C504.84936471 76.67135791 504.84936471 76.67135791 505.89124039 76.65973496 C510.85985326 76.71363942 515.25897607 77.73651379 519.64453125 80.0546875 C520.80988403 81.36312622 520.80988403 81.36312622 521.9987793 82.69799805 C526.00506842 86.26657873 529.7797802 85.78304042 534.9765625 85.76171875 C535.96830978 85.77684006 536.96005707 85.79196136 537.9818573 85.80754089 C541.1404797 85.85042952 544.29814664 85.85925725 547.45703125 85.8671875 C549.60223896 85.89033082 551.74742394 85.91569581 553.89257812 85.94335938 C559.14323822 86.00622276 564.39352477 86.04114794 569.64453125 86.0546875 C569.63786942 85.18295898 569.63120758 84.31123047 569.62434387 83.41308594 C569.56408803 75.17456697 569.51848347 66.93612264 569.48909473 58.69743347 C569.47347745 54.46241816 569.45231171 50.22758582 569.41821289 45.99267578 C569.38547818 41.90130835 569.36764865 37.81011628 569.35989952 33.71862793 C569.35438123 32.16220339 569.34360556 30.60578782 569.32734108 29.04943848 C569.14888498 11.25595146 569.14888498 11.25595146 574.328125 5.03125 C574.90691406 4.58523437 575.48570312 4.13921875 576.08203125 3.6796875 C576.65824219 3.21820313 577.23445312 2.75671875 577.828125 2.28125 C583.34314003 -1.44286767 588.08448502 -1.6549985 594.64453125 -0.9453125 C600.08061016 0.52289343 604.11542944 3.68316824 607.38278198 8.21841431 C609.97613053 14.04797581 609.50738944 20.65239468 609.49647713 26.93376732 C609.49212298 29.63772142 609.52409085 32.33917665 609.56504822 35.0428009 C609.64511878 40.77584952 609.67788458 46.50868964 609.70703125 52.2421875 C609.74525465 58.89959246 609.80296552 65.55605525 609.89941216 72.2128849 C609.92926655 74.87265341 609.92891872 77.53129956 609.92701721 80.19120789 C609.94613449 81.82304538 609.96656663 83.45486819 609.98852539 85.08666992 C609.97982422 85.82288574 609.97112305 86.55910156 609.9621582 87.31762695 C610.04874202 91.26512407 610.49704407 92.88042641 613.08396912 95.93696594 C614.35144737 96.98523811 614.35144737 96.98523811 615.64453125 98.0546875 C626.86962304 110.84481612 629.64453125 125.32800291 629.64453125 142.0546875 C646.14453125 142.0546875 662.64453125 142.0546875 679.64453125 142.0546875 C679.89763371 150.13756151 680.13767899 158.20577629 680.26553345 166.28917694 C680.32843315 170.05432244 680.41215248 173.81612856 680.54980469 177.5793457 C681.57942995 206.48080401 681.57942995 206.48080401 673.91796875 215.19921875 C672.3864517 216.75511245 670.82163907 218.21696298 669.17074585 219.64503479 C666.57462358 222.0428829 664.61595063 224.84071285 662.51953125 227.6796875 C661.7013296 228.75291463 660.88100553 229.82452691 660.05859375 230.89453125 C658.86363281 232.45880859 658.86363281 232.45880859 657.64453125 234.0546875 C646.96134006 247.98542684 636.18291917 261.84182057 625.33984375 275.6484375 C624.92845154 276.18676208 624.51705933 276.72508667 624.09320068 277.27972412 C622.64453125 279.0546875 622.64453125 279.0546875 620.70025635 281.02935791 C613.99318517 288.26897439 613.20198362 295.13778152 612.68359375 304.5703125 C612.56874888 306.16097918 612.4506076 307.75141061 612.32951355 309.34161377 C612.07211304 312.81412571 611.83773995 316.28718151 611.62075806 319.76245117 C611.26672443 325.42830811 610.86245219 331.0899496 610.4519043 336.75195312 C609.91808879 344.16739047 609.39843291 351.58362294 608.89328289 359.00106812 C607.71148101 376.34230405 606.42657633 393.67525729 605.125 411.0078125 C605.0427118 412.10402467 605.0427118 412.10402467 604.95876122 413.22238255 C604.45714696 419.90460163 603.9552879 426.5868023 603.45279312 433.26895523 C602.74459774 442.69163834 602.04455019 452.114895 601.35067499 461.538643 C599.34249376 488.80672093 597.30119633 516.06985789 594.95906067 543.31176758 C593.87231556 555.98900861 592.93850956 568.67238557 592.08203125 581.3671875 C591.9535754 583.26132334 591.82502586 585.15545282 591.69638062 587.04957581 C591.61110139 588.30724683 591.61110139 588.30724683 591.52409935 589.59032536 C590.8139425 600.00143562 589.95386815 610.39326625 589.0241394 620.78674316 C587.71026605 635.55027325 586.67844533 650.33179016 585.64453125 665.1171875 C584.5941767 680.12891041 583.53317327 695.1326162 582.14453125 710.1171875 C580.72184344 725.49553542 579.61711616 740.89217411 578.52105713 756.29690552 C577.52292537 770.29926468 576.4835949 784.2972121 575.34765625 798.2890625 C575.29250225 798.96885918 575.23734825 799.64865585 575.18052292 800.34905243 C574.5921947 807.59232112 573.99657209 814.83496481 573.39501953 822.07714844 C572.23352199 836.1540945 571.22016889 850.23135623 570.33674622 864.32781982 C569.75790712 873.50262291 569.05188591 882.65080899 568.20703125 891.8046875 C566.83460276 907.08839791 565.74289638 922.38650123 564.73461914 937.69824219 C564.1016044 947.19841759 563.32582217 956.66952142 562.39367676 966.14505005 C561.44890821 975.85278318 560.75095642 985.57461809 560.08203125 995.3046875 C560.017276 996.23203705 559.95252075 997.1593866 559.88580322 998.11483765 C559.03417547 1010.3457204 558.28455772 1022.56591085 557.93530273 1034.82324219 C557.80156366 1039.32701816 557.53872544 1043.62036385 556.64453125 1048.0546875 C558.62453125 1048.0546875 560.60453125 1048.0546875 562.64453125 1048.0546875 C564.19275948 1040.5398761 565.02568972 1033.22184131 565.35546875 1025.5625 C565.46703785 1023.36977076 565.57903096 1021.17706307 565.69140625 1018.984375 C565.85698113 1015.5978817 566.01810458 1012.21131359 566.17089844 1008.82421875 C568.35567756 961.34354119 568.35567756 961.34354119 579.64453125 950.0546875 C583.45184643 947.42015099 587.61479287 947.74874084 592.06640625 947.75390625 C593.29463104 947.74747856 593.29463104 947.74747856 594.54766846 947.74092102 C596.27916542 947.73518506 598.01068648 947.73467206 599.7421875 947.73901367 C602.37152074 947.74215997 604.99971315 947.71875387 607.62890625 947.69335938 C609.31640484 947.69108471 611.00390643 947.69038366 612.69140625 947.69140625 C613.46877136 947.6821965 614.24613647 947.67298676 615.04705811 947.66349792 C621.22511956 947.71499426 626.73652352 948.84842935 631.78125 952.67578125 C655.66332976 980.64849432 651.05304735 1035.76211183 650.96218491 1070.09823227 C650.95693224 1072.21967617 650.95502878 1074.34110533 650.95352173 1076.46255493 C650.92678287 1098.11993406 650.23452264 1119.53548931 647.64453125 1141.0546875 C647.4136754 1143.17704126 647.1831844 1145.29943476 646.953125 1147.421875 C642.76561281 1183.7055789 642.76561281 1183.7055789 631.14453125 1195.6171875 C623.85620049 1199.80797769 615.89319365 1200.23720287 607.64453125 1200.1796875 C606.91194092 1200.17485352 606.17935059 1200.17001953 605.42456055 1200.16503906 C603.16414812 1200.14071001 600.90459385 1200.10100228 598.64453125 1200.0546875 C597.93506348 1200.04211914 597.2255957 1200.02955078 596.49462891 1200.01660156 C594.48138947 1199.97029847 592.46907446 1199.88810884 590.45703125 1199.8046875 C588.70326172 1199.73507812 588.70326172 1199.73507812 586.9140625 1199.6640625 C582.07528661 1198.7622118 578.95649493 1196.65819866 575.8515625 1192.86328125 C568.95726109 1181.14103768 567.47710264 1168.32196539 565.64453125 1155.0546875 C565.49951172 1154.00595459 565.49951172 1154.00595459 565.3515625 1152.93603516 C563.93491124 1142.3291155 563.21880814 1131.66564031 562.51953125 1120.9921875 C562.45268631 1119.98291199 562.45268631 1119.98291199 562.38449097 1118.95324707 C561.90601133 1111.64178364 561.53216954 1104.38227626 561.64453125 1097.0546875 C558.67453125 1097.0546875 555.70453125 1097.0546875 552.64453125 1097.0546875 C552.6604834 1098.07449707 552.67643555 1099.09430664 552.69287109 1100.14501953 C552.79892075 1110.05585517 552.3702113 1119.81773311 551.47265625 1129.68652344 C551.26776962 1131.94914168 551.07651504 1134.21263338 550.88671875 1136.4765625 C548.9427782 1159.00786876 543.52706084 1178.86632432 525.64453125 1194.0546875 C512.94138858 1204.26614545 499.53790314 1210.36658415 483.25804138 1210.32643127 C482.11625823 1210.33151811 480.97447507 1210.33660495 479.79809242 1210.34184593 C475.97139909 1210.35650656 472.14483468 1210.35704041 468.31811523 1210.35766602 C465.56994945 1210.36422393 462.82179606 1210.37378519 460.07363892 1210.38323975 C454.13930357 1210.40211897 448.20498877 1210.41382416 442.27062798 1210.42077827 C433.59699344 1210.43103185 424.92341907 1210.45316741 416.24981595 1210.47816419 C402.05238045 1210.51883378 387.854939 1210.55122263 373.6574707 1210.57788086 C342.82166615 1210.63584504 311.98590021 1210.70909222 281.15014707 1210.78977264 C276.31072643 1210.80240927 271.47130497 1210.8146367 266.63188251 1210.82655374 C223.09529194 1210.93404501 179.56443024 1211.16506139 136.03158283 1211.78822613 C130.49348183 1211.86722435 124.95531579 1211.93974605 119.4170723 1212.00800705 C116.90608943 1212.0390773 114.39512952 1212.07206317 111.88419724 1212.10698318 C108.41034857 1212.15204133 104.9366816 1212.18298346 101.46264648 1212.20922852 C99.97743925 1212.23168719 99.97743925 1212.23168719 98.46222782 1212.25459957 C80.57461419 1212.33183194 64.71502928 1202.9629778 52.2578125 1190.69140625 C51.39542969 1189.82128906 50.53304687 1188.95117188 49.64453125 1188.0546875 C48.97808594 1187.42175781 48.31164062 1186.78882813 47.625 1186.13671875 C43.48566589 1181.90394595 40.83264856 1177.02853319 38.14453125 1171.8046875 C37.78133789 1171.10641846 37.41814453 1170.40814941 37.04394531 1169.6887207 C35.23734983 1166.00580616 34.34918217 1163.96440391 35.64453125 1160.0546875 C35.64453125 1160.7146875 35.64453125 1161.3746875 35.64453125 1162.0546875 C39.93547585 1162.68471078 44.22728126 1163.30862063 48.51953125 1163.9296875 C49.80134277 1164.1153125 51.0831543 1164.3009375 52.40380859 1164.4921875 C59.35079472 1165.48498864 66.28515227 1166.37870253 73.26953125 1167.0546875 C79.06218197 1167.62333172 84.55709741 1168.66968426 90.20703125 1170.0546875 C107.44351062 1174.1289003 125.303405 1174.18543423 142.93359375 1174.60546875 C144.28206485 1174.63793953 144.28206485 1174.63793953 145.65777779 1174.67106628 C163.44295675 1175.08284518 181.22652594 1175.13457111 199.015625 1175.1171875 C199.70264173 1175.11653298 200.38965847 1175.11587845 201.09749389 1175.1152041 C211.75902625 1175.10419324 222.42052578 1175.08035004 233.08203125 1175.0546875 C244.45572424 1175.0273674 255.82940484 1175.00437976 267.203125 1174.9921875 C267.8871378 1174.99134297 268.5711506 1174.99049844 269.27589107 1174.98962831 C286.01677193 1174.96994183 302.73341752 1175.07218171 319.46471786 1175.6507988 C335.75783092 1176.21024131 352.02312727 1175.99927315 368.3201828 1175.71989822 C371.57975581 1175.6649849 374.83940034 1175.61518555 378.09905243 1175.56522465 C386.12137549 1175.44206965 394.14347943 1175.30854581 402.16550446 1175.16737461 C406.79337763 1175.0860932 411.42129527 1175.00952391 416.04931641 1174.93701172 C421.1539998 1174.85664451 426.25841916 1174.76756973 431.36276245 1174.66790771 C433.10012101 1174.63473991 434.83752967 1174.60407796 436.57498169 1174.57623291 C458.73259364 1174.25965189 458.73259364 1174.25965189 477.51953125 1163.4921875 C478.22078125 1162.6878125 478.92203125 1161.8834375 479.64453125 1161.0546875 C480.32515625 1160.3740625 481.00578125 1159.6934375 481.70703125 1158.9921875 C488.58149589 1148.56961207 488.5643691 1136.2120664 489.20703125 1124.17578125 C489.32349411 1122.22321352 489.4414697 1120.27073552 489.56085205 1118.31834412 C489.81066714 1114.18461747 490.05061331 1110.05048976 490.28234863 1105.91571045 C490.6448892 1099.44756679 491.02882861 1092.98081053 491.41699219 1086.51416016 C491.80438978 1080.04734098 492.19090172 1073.58048486 492.56976318 1067.11315918 C493.5708248 1050.04378046 494.69876922 1032.98647363 495.89453125 1015.9296875 C497.10256109 998.56423983 498.21234737 981.1996588 499.04980469 963.81201172 C499.08401016 963.1215274 499.11821564 962.43104309 499.15345764 961.71963501 C499.24219475 959.91642176 499.32674377 958.11300369 499.41088867 956.30957031 C499.65871023 952.85715968 500.14480615 949.47875738 500.64453125 946.0546875 C500.76477204 944.47575244 500.8613557 942.89469566 500.92578125 941.3125 C500.96316406 940.47332031 501.00054688 939.63414062 501.0390625 938.76953125 C501.09126953 937.48755859 501.09126953 937.48755859 501.14453125 936.1796875 C501.21463456 934.47384039 501.28753459 932.76810584 501.36328125 931.0625 C501.4087207 929.94319092 501.4087207 929.94319092 501.45507812 928.80126953 C501.61374412 926.50102148 501.85000825 924.24083067 502.12158203 921.95239258 C502.73823573 916.53941952 503.021274 911.12323632 503.29296875 905.68359375 C503.35002991 904.58802155 503.40709106 903.49244934 503.46588135 902.36367798 C503.58857211 900.00718421 503.71020318 897.65063506 503.83087158 895.29403687 C504.15259876 889.0237918 504.48418315 882.75407153 504.81640625 876.484375 C504.91805588 874.5646714 504.91805588 874.5646714 505.02175903 872.60618591 C505.72101764 859.4818502 506.48379284 846.36159668 507.26953125 833.2421875 C507.33178894 832.1916922 507.39404663 831.1411969 507.45819092 830.05886841 C507.63553017 827.07167605 507.81534645 824.08464413 507.99609375 821.09765625 C508.07250092 819.8088707 508.07250092 819.8088707 508.15045166 818.49404907 C508.40778952 814.30071675 508.72404329 810.12250396 509.12817383 805.94067383 C509.74417486 799.33830549 510.08651396 792.72276953 510.43505669 786.10209656 C510.64548597 782.11594782 510.8638402 778.13023473 511.08251953 774.14453125 C511.12804049 773.31429192 511.17356146 772.48405258 511.22046185 771.62865448 C511.71730278 762.63283303 512.2682368 753.64052387 512.828125 744.6484375 C512.87857216 743.83696636 512.92901932 743.02549522 512.98099518 742.18943405 C513.2930243 737.17317479 513.60652587 732.15700832 513.92035675 727.14086151 C514.42079689 719.13573218 514.91816007 711.13041161 515.4140625 703.125 C515.46820061 702.25129383 515.52233871 701.37758766 515.57811737 700.47740555 C516.52777511 685.13098915 517.41174769 669.78152081 518.26953125 654.4296875 C519.13106957 639.02193622 520.15349889 623.63898895 521.39794922 608.25741577 C522.50628229 594.54953081 523.32432019 580.8377029 523.99829102 567.10180664 C524.05339088 565.99928055 524.05339088 565.99928055 524.10960388 564.8744812 C524.20731434 562.90562319 524.3013216 560.93658235 524.39501953 558.9675293 C524.57279163 556.17970792 524.80979138 553.44707707 525.11474609 550.67456055 C525.8274046 543.77715802 526.10186754 536.85376073 526.4315033 529.92995834 C527.41292778 509.42189658 528.66492474 488.93445744 529.98309326 468.44573975 C530.1997969 465.06835822 530.41410517 461.69082649 530.62837219 458.31328964 C531.52633245 444.16389255 532.42707373 430.01510745 533.4282074 415.87257385 C534.22885876 404.56145496 534.93349699 393.24847823 535.546875 381.92578125 C536.82981297 358.246363 538.28254023 334.57723987 539.73120117 310.9074707 C540.13321108 304.33562198 540.53100223 297.76352435 540.92796421 291.19136906 C541.23707801 286.08611537 541.5492415 280.9810515 541.862257 275.87603569 C542.01052435 273.44920262 542.15763897 271.02229883 542.30356026 268.59532356 C542.5058562 265.235298 542.71246951 261.87556459 542.92016602 258.51586914 C542.97888382 257.52441895 543.03760162 256.53296875 543.09809875 255.51147461 C543.15548218 254.59741348 543.2128656 253.68335236 543.27198792 252.74159241 C543.34413938 251.55762926 543.34413938 251.55762926 543.41774845 250.34974766 C543.66022479 247.89586761 544.16094202 245.47263364 544.64453125 243.0546875 C353.90453125 243.0546875 163.16453125 243.0546875 -33.35546875 243.0546875 C-31.87046875 261.3696875 -31.87046875 261.3696875 -30.35546875 280.0546875 C-29.65848955 292.0934191 -29.1888964 304.00595412 -29.35546875 316.0546875 C-29.68546875 316.0546875 -30.01546875 316.0546875 -30.35546875 316.0546875 C-30.37826904 315.29027344 -30.40106934 314.52585937 -30.42456055 313.73828125 C-31.09583085 296.99304683 -32.50915231 285.61658994 -44.70263672 273.72802734 C-47.23628916 271.16293815 -49.3410526 268.32403805 -51.48046875 265.4296875 C-56.25165109 259.17859076 -61.10132076 252.99272402 -65.96875 246.81640625 C-67.33964557 245.07478962 -68.70746866 243.33080865 -70.07421875 241.5859375 C-75.78583396 234.29654505 -81.54286015 227.04513514 -87.3359375 219.8203125 C-87.99822357 218.96808861 -87.99822357 218.96808861 -88.67388916 218.09864807 C-90.34853663 215.99913239 -90.34853663 215.99913239 -92.37287903 214.01828003 C-99.0624309 206.84304685 -99.43797031 200.77962719 -99.13671875 191.296875 C-99.12176333 189.89872505 -99.11039193 188.50053263 -99.10241699 187.10232544 C-99.07213862 183.45487928 -98.99380297 179.8100574 -98.90478516 176.16363525 C-98.82235673 172.42977018 -98.78584425 168.69546054 -98.74609375 164.9609375 C-98.66502397 157.65655067 -98.50844558 150.3593313 -98.35546875 143.0546875 C-81.85546875 143.0546875 -65.35546875 143.0546875 -48.35546875 143.0546875 C-48.35546875 138.7646875 -48.35546875 134.4746875 -48.35546875 130.0546875 C-46.72971927 115.70164211 -39.85406519 102.8690577 -29.35546875 93.0546875 C-28.69546875 92.7246875 -28.03546875 92.3946875 -27.35546875 92.0546875 C-27.35182312 91.053237 -27.34817749 90.0517865 -27.34442139 89.01998901 C-27.30745108 79.57389989 -27.24965616 70.12813615 -27.17156601 60.68229485 C-27.13208729 55.82626892 -27.09990074 50.97042443 -27.08447266 46.11425781 C-27.06930869 41.42616271 -27.03486775 36.73856643 -26.98715973 32.05069351 C-26.97234325 30.26381902 -26.96442758 28.47687331 -26.9635849 26.68993759 C-26.96121425 24.18321549 -26.93412824 21.67787079 -26.90136719 19.17138672 C-26.90891273 18.06762947 -26.90891273 18.06762947 -26.91661072 16.9415741 C-26.81402519 11.85540348 -25.5263124 8.98935527 -22.35546875 5.0546875 C-15.8768783 -0.77604391 -8.52111554 -3.41975118 0 0 Z " transform="translate(222.35546875,153.9453125)" style="fill: rgb(75, 75, 75);"/>
  <path d="M0 0 C5.28945447 3.15580961 9.33719372 7.27659265 11.64453125 13.0546875 C11.88208411 15.57809549 12.01685583 18.00079028 12.05859375 20.52734375 C12.07800522 21.27115799 12.09741669 22.01497223 12.11741638 22.78132629 C12.17802061 25.22649615 12.22420909 27.67169026 12.26953125 30.1171875 C12.30749682 31.81071785 12.3458312 33.50423996 12.38452148 35.19775391 C12.74842701 52.15125896 12.71460163 69.09765634 12.64453125 86.0546875 C36.89953125 86.5496875 36.89953125 86.5496875 61.64453125 87.0546875 C62.63453125 85.0746875 62.63453125 85.0746875 63.64453125 83.0546875 C65.265625 81.60546875 65.265625 81.60546875 67.08203125 80.3671875 C67.97728516 79.74263672 67.97728516 79.74263672 68.890625 79.10546875 C72.76736818 76.78287651 76.47073591 76.91211711 80.83173656 76.92325974 C81.572309 76.9212071 82.31288143 76.91915447 83.07589546 76.91703963 C85.57715863 76.91134952 88.07836709 76.91282936 90.57963562 76.91424561 C92.38318645 76.91166312 94.18673671 76.90865028 95.99028617 76.9052422 C100.9619554 76.8971552 105.93361021 76.89538169 110.90528524 76.89464474 C116.26126773 76.89279712 121.61724268 76.88525124 126.97322083 76.87850952 C138.69221383 76.86491335 150.41120343 76.85889941 162.13020301 76.85449886 C169.44459401 76.85173847 176.75898369 76.84750148 184.07337379 76.84299469 C204.31583288 76.83080009 224.55829091 76.82050132 244.80075359 76.8171196 C246.09694946 76.81690003 247.39314533 76.81668047 248.72861986 76.81645425 C250.02795911 76.81623597 251.32729835 76.81601769 252.66601151 76.8157928 C255.29906952 76.81534933 257.93212754 76.81490277 260.56518555 76.81445312 C261.87127983 76.8142317 263.17737411 76.81401027 264.52304701 76.81378213 C285.68887528 76.8098337 306.85466914 76.79237915 328.02048411 76.7690936 C349.73945743 76.74539194 371.45841347 76.73291828 393.17739993 76.73175168 C405.37647647 76.73083422 417.57550817 76.72506421 429.77457237 76.70693207 C440.16220753 76.69154705 450.549784 76.68640115 460.93742838 76.69467017 C466.23860708 76.6985824 471.53966753 76.6976191 476.84083176 76.68361282 C481.69362565 76.67090832 486.54621204 76.67204107 491.39900551 76.68420354 C493.15476858 76.68616653 494.91054618 76.68305439 496.66628882 76.67435917 C499.05381756 76.66328353 501.44061176 76.67074314 503.82812023 76.6827507 C504.84936471 76.67135791 504.84936471 76.67135791 505.89124039 76.65973496 C510.85985326 76.71363942 515.25897607 77.73651379 519.64453125 80.0546875 C520.80988403 81.36312622 520.80988403 81.36312622 521.9987793 82.69799805 C526.00506842 86.26657873 529.7797802 85.78304042 534.9765625 85.76171875 C535.96830978 85.77684006 536.96005707 85.79196136 537.9818573 85.80754089 C541.1404797 85.85042952 544.29814664 85.85925725 547.45703125 85.8671875 C549.60223896 85.89033082 551.74742394 85.91569581 553.89257812 85.94335938 C559.14323822 86.00622276 564.39352477 86.04114794 569.64453125 86.0546875 C569.63786942 85.18295898 569.63120758 84.31123047 569.62434387 83.41308594 C569.56408803 75.17456697 569.51848347 66.93612264 569.48909473 58.69743347 C569.47347745 54.46241816 569.45231171 50.22758582 569.41821289 45.99267578 C569.38547818 41.90130835 569.36764865 37.81011628 569.35989952 33.71862793 C569.35438123 32.16220339 569.34360556 30.60578782 569.32734108 29.04943848 C569.14888498 11.25595146 569.14888498 11.25595146 574.328125 5.03125 C574.90691406 4.58523437 575.48570312 4.13921875 576.08203125 3.6796875 C576.65824219 3.21820313 577.23445312 2.75671875 577.828125 2.28125 C583.34314003 -1.44286767 588.08448502 -1.6549985 594.64453125 -0.9453125 C600.08061016 0.52289343 604.11542944 3.68316824 607.38278198 8.21841431 C609.97613053 14.04797581 609.50738944 20.65239468 609.49647713 26.93376732 C609.49212298 29.63772142 609.52409085 32.33917665 609.56504822 35.0428009 C609.64511878 40.77584952 609.67788458 46.50868964 609.70703125 52.2421875 C609.74525465 58.89959246 609.80296552 65.55605525 609.89941216 72.2128849 C609.92926655 74.87265341 609.92891872 77.53129956 609.92701721 80.19120789 C609.94613449 81.82304538 609.96656663 83.45486819 609.98852539 85.08666992 C609.97982422 85.82288574 609.97112305 86.55910156 609.9621582 87.31762695 C610.04874202 91.26512407 610.49704407 92.88042641 613.08396912 95.93696594 C614.35144737 96.98523811 614.35144737 96.98523811 615.64453125 98.0546875 C626.86962304 110.84481612 629.64453125 125.32800291 629.64453125 142.0546875 C646.14453125 142.0546875 662.64453125 142.0546875 679.64453125 142.0546875 C679.64453125 163.1746875 679.64453125 184.2946875 679.64453125 206.0546875 C423.56453125 206.0546875 167.48453125 206.0546875 -96.35546875 206.0546875 C-96.35546875 185.5946875 -96.35546875 165.1346875 -96.35546875 144.0546875 C-80.51546875 144.0546875 -64.67546875 144.0546875 -48.35546875 144.0546875 C-48.35546875 139.4346875 -48.35546875 134.8146875 -48.35546875 130.0546875 C-45.97744818 115.50679697 -40.21805562 103.20932573 -29.35546875 93.0546875 C-28.69546875 92.7246875 -28.03546875 92.3946875 -27.35546875 92.0546875 C-27.35182312 91.053237 -27.34817749 90.0517865 -27.34442139 89.01998901 C-27.30745108 79.57389989 -27.24965616 70.12813615 -27.17156601 60.68229485 C-27.13208729 55.82626892 -27.09990074 50.97042443 -27.08447266 46.11425781 C-27.06930869 41.42616271 -27.03486775 36.73856643 -26.98715973 32.05069351 C-26.97234325 30.26381902 -26.96442758 28.47687331 -26.9635849 26.68993759 C-26.96121425 24.18321549 -26.93412824 21.67787079 -26.90136719 19.17138672 C-26.90891273 18.06762947 -26.90891273 18.06762947 -26.91661072 16.9415741 C-26.81402519 11.85540348 -25.5263124 8.98935527 -22.35546875 5.0546875 C-15.8768783 -0.77604391 -8.52111554 -3.41975118 0 0 Z " transform="translate(222.35546875,153.9453125)" style="fill: rgb(106, 106, 106);"/>
  <path d="M0 0 C25.74 0 51.48 0 78 0 C78.5896192 7.07543039 79.13782909 13.90851365 79.17578125 20.96484375 C79.1962164 22.71233255 79.21767813 24.45980955 79.23999023 26.20727539 C79.25677322 27.59681931 79.25677322 27.59681931 79.27389526 29.01443481 C79.6217613 55.3540811 81.0009961 81.6229067 82.45239258 107.91967773 C82.62375117 111.03105772 82.79457897 114.14246621 82.96484375 117.25390625 C83.00787125 118.03986301 83.05089874 118.82581978 83.0952301 119.63559341 C83.86168606 133.71592865 84.48206393 147.80035436 85.06645203 161.88928604 C86.15840681 188.19170803 87.40208004 214.48693091 88.6467225 240.78247553 C88.87242782 245.55389973 89.09664325 250.32539235 89.32006836 255.09692383 C90.69499614 284.45451396 92.12534431 313.80766057 93.72424126 343.15409279 C95.05884971 367.68082224 96.2193157 392.21429204 97.34489441 416.75138474 C97.61124871 422.54470868 97.8803493 428.33790492 98.14941406 434.13110352 C98.20320347 435.28943223 98.25699287 436.44776094 98.31241226 437.64119053 C98.42041242 439.96685065 98.52842045 442.2925104 98.63643646 444.61816978 C98.7953365 448.04107745 98.95401104 451.46399548 99.11260986 454.88691711 C99.91835902 472.27384388 100.72956697 489.66049202 101.5637207 507.04608154 C101.68611307 509.60288696 101.80771922 512.15973015 101.9284668 514.71661377 C102.09087908 518.15362596 102.25596718 521.59049877 102.421875 525.02734375 C102.46644836 525.98163773 102.51102173 526.9359317 102.5569458 527.91914368 C102.78368376 532.54811777 103.0875625 537.15747436 103.49560547 541.77416992 C104.09236071 548.70393804 104.37571673 555.63693667 104.6484375 562.5859375 C104.70571877 563.99031319 104.76331908 565.39467591 104.82121277 566.79902649 C104.94382682 569.77762963 105.06538144 572.75627288 105.18606567 575.73495483 C106.14698049 599.39575719 107.20126274 623.04585159 108.5625 646.6875 C108.65745758 648.33845673 108.65745758 648.33845673 108.7543335 650.02276611 C108.81719543 651.11562927 108.88005737 652.20849243 108.94482422 653.33447266 C109.06880366 655.4925062 109.19266623 657.65054646 109.31640625 659.80859375 C109.37604553 660.84856506 109.43568481 661.88853638 109.49713135 662.96002197 C110.11958532 673.9233205 110.62531379 684.89112681 111.11703491 695.8609314 C111.58849896 706.36267435 112.08808063 716.86195975 112.6484375 727.359375 C112.70643021 728.44750488 112.76442291 729.53563477 112.82417297 730.65673828 C112.9132618 732.32808838 112.9132618 732.32808838 113.00415039 734.03320312 C114.67998472 765.48433298 116.08875014 796.94439443 117.43302917 828.41126251 C118.24233334 847.34532122 119.08127761 866.27689685 120.05859375 885.203125 C120.09891283 885.99939049 120.13923191 886.79565598 120.18077278 887.61605072 C120.57909735 895.44261976 121.0616172 903.21582787 122 911 C122.10290348 913.69451661 122.08681363 916.36368715 122.0625 919.0625 C122.05347656 920.37347656 122.04445313 921.68445312 122.03515625 923.03515625 C122.01775391 924.50275391 122.01775391 924.50275391 122 926 C108.86553912 924.52130842 95.7589829 922.90182925 82.6875 920.9375 C81.57971191 920.77540039 80.47192383 920.61330078 79.33056641 920.44628906 C78.29722168 920.28741211 77.26387695 920.12853516 76.19921875 919.96484375 C74.83543091 919.75782837 74.83543091 919.75782837 73.4440918 919.54663086 C68.95925231 918.54357866 68.95925231 918.54357866 67 917 C66.22900391 913.94628906 66.22900391 913.94628906 65.8515625 910.015625 C65.77886139 909.3073053 65.70616028 908.5989856 65.6312561 907.86920166 C65.40182147 905.58085608 65.19984881 903.29110236 65 901 C64.8574549 899.50185672 64.7139064 898.00380856 64.56933594 896.50585938 C64.20942693 892.69633241 63.88155368 888.88484011 63.56738281 885.07128906 C63.37392853 882.73707167 63.1715713 880.40373253 62.96875 878.0703125 C62.25959056 869.6944032 61.79671728 861.41467264 62 853 C59.03 853 56.06 853 53 853 C53.04640625 854.340625 53.0928125 855.68125 53.140625 857.0625 C53.45611482 870.95133269 52.61135613 884.56594203 51.25 898.375 C51.17140747 899.20628418 51.09281494 900.03756836 51.01184082 900.89404297 C47.0237737 942.5011679 47.0237737 942.5011679 36 953 C24.98770686 958.64044283 2.93702414 957.86402704 -9 954.796875 C-16.16179945 951.94334553 -19.51455079 946.30035839 -22.65625 939.515625 C-25.20749682 932.84085134 -26.65533465 926.00307897 -28 919 C-28.1350293 918.33307129 -28.27005859 917.66614258 -28.40917969 916.97900391 C-34.24418686 887.60946779 -34.49274355 857.03607064 -34.3225708 827.20776367 C-34.30903806 823.98910377 -34.31443448 820.77057949 -34.31943226 817.55190372 C-34.34657513 794.43380729 -33.89609048 771.31228677 -30.1875 748.4375 C-30.01718262 747.37088135 -29.84686523 746.3042627 -29.67138672 745.20532227 C-27.37041365 731.47714949 -24.91538212 717.52926592 -14.4375 707.5625 C-8.8345045 703.97083622 -4.03580547 703.64513925 2.46484375 703.55859375 C3.37577286 703.54482193 4.28670197 703.53105011 5.22523499 703.51686096 C7.1474098 703.49364125 9.06966421 703.47634929 10.99194336 703.46459961 C13.92515762 703.43761355 16.85479865 703.36265015 19.78710938 703.28710938 C21.65883001 703.27045561 23.53057901 703.25668796 25.40234375 703.24609375 C26.2743895 703.21623886 27.14643524 703.18638397 28.04490662 703.15562439 C31.63520562 703.18143905 34.0315979 703.2118706 36.88084412 705.53071594 C52.37048055 723.31606676 49.67597698 756.44932512 51.27026367 778.78662109 C51.39365112 780.49132568 51.39365112 780.49132568 51.51953125 782.23046875 C51.58760986 783.20781982 51.65568848 784.1851709 51.72583008 785.19213867 C52.10120289 789.03645099 52.80857917 792.78414552 53.59765625 796.5625 C54.01400849 799.08486698 54.06834983 801.44827312 54 804 C55.32 803.67 56.64 803.34 58 803 C57.94180084 802.19187363 57.88360168 801.38374725 57.82363892 800.5511322 C57.26390475 792.77602904 56.70531051 785.00084507 56.1478672 777.22557735 C55.86153403 773.23229236 55.57482275 769.23903542 55.28710938 765.24584961 C54.95320503 760.61060155 54.62052504 755.97526706 54.2890625 751.33984375 C54.23333572 750.56064135 54.17760895 749.78143894 54.12019348 748.97862434 C53.39080151 738.75658526 52.70906589 728.53285018 52.0703125 718.3046875 C50.75230326 697.39974455 49.11400279 676.51750156 47.51381302 655.6326561 C47.24581749 652.13288024 46.97852106 648.63305157 46.71139526 645.13320923 C44.56175286 616.97909882 42.37141102 588.82900113 40.0625 560.6875 C37.5217779 529.71467415 35.08883038 498.73393878 32.6875 467.75 C32.59277531 466.52804932 32.49805061 465.30609863 32.40045547 464.04711914 C29.12125512 421.73613756 25.88920907 379.42158753 22.67382812 337.10571289 C20.46858163 308.08469372 18.23037729 279.06724333 15.88949585 250.05685425 C14.39264864 231.46528699 13.07134178 212.86586102 11.82928467 194.25564575 C10.80649897 178.97266719 9.68191581 163.70119576 8.453125 148.43359375 C8.38562483 147.59447323 8.31812466 146.75535271 8.24857903 145.89080429 C7.57820982 137.56843607 6.90087669 129.24666364 6.21293163 120.92572975 C2.8741702 80.50224851 2.8741702 80.50224851 3.02294922 60.64160156 C2.98028874 53.87220084 2.50430824 47.12801945 2.0625 40.375 C1.97420413 38.96356696 1.88631274 37.55210856 1.79882812 36.140625 C1.34240816 28.86687461 0.8302296 21.60193 0.18139648 14.34228516 C-0.07771014 9.56816718 0 4.78114408 0 0 Z " transform="translate(189,398)" style="fill: rgb(140, 140, 140);"/>
  <path d="M0 0 C5.28945447 3.15580961 9.33719372 7.27659265 11.64453125 13.0546875 C11.88208411 15.57809549 12.01685583 18.00079028 12.05859375 20.52734375 C12.08771095 21.64306511 12.08771095 21.64306511 12.11741638 22.78132629 C12.17802061 25.22649615 12.22420909 27.67169026 12.26953125 30.1171875 C12.30749682 31.81071785 12.3458312 33.50423996 12.38452148 35.19775391 C12.74842701 52.15125896 12.71460163 69.09765634 12.64453125 86.0546875 C36.89953125 86.5496875 36.89953125 86.5496875 61.64453125 87.0546875 C62.63453125 85.0746875 62.63453125 85.0746875 63.64453125 83.0546875 C65.265625 81.60546875 65.265625 81.60546875 67.08203125 80.3671875 C67.97728516 79.74263672 67.97728516 79.74263672 68.890625 79.10546875 C72.76736818 76.78287651 76.47073591 76.91211711 80.83173656 76.92325974 C81.572309 76.9212071 82.31288143 76.91915447 83.07589546 76.91703963 C85.57715863 76.91134952 88.07836709 76.91282936 90.57963562 76.91424561 C92.38318645 76.91166312 94.18673671 76.90865028 95.99028617 76.9052422 C100.9619554 76.8971552 105.93361021 76.89538169 110.90528524 76.89464474 C116.26126773 76.89279712 121.61724268 76.88525124 126.97322083 76.87850952 C138.69221383 76.86491335 150.41120343 76.85889941 162.13020301 76.85449886 C169.44459401 76.85173847 176.75898369 76.84750148 184.07337379 76.84299469 C204.31583288 76.83080009 224.55829091 76.82050132 244.80075359 76.8171196 C246.09694946 76.81690003 247.39314533 76.81668047 248.72861986 76.81645425 C250.02795911 76.81623597 251.32729835 76.81601769 252.66601151 76.8157928 C255.29906952 76.81534933 257.93212754 76.81490277 260.56518555 76.81445312 C261.87127983 76.8142317 263.17737411 76.81401027 264.52304701 76.81378213 C285.68887528 76.8098337 306.85466914 76.79237915 328.02048411 76.7690936 C349.73945743 76.74539194 371.45841347 76.73291828 393.17739993 76.73175168 C405.37647647 76.73083422 417.57550817 76.72506421 429.77457237 76.70693207 C440.16220753 76.69154705 450.549784 76.68640115 460.93742838 76.69467017 C466.23860708 76.6985824 471.53966753 76.6976191 476.84083176 76.68361282 C481.69362565 76.67090832 486.54621204 76.67204107 491.39900551 76.68420354 C493.15476858 76.68616653 494.91054618 76.68305439 496.66628882 76.67435917 C499.05381756 76.66328353 501.44061176 76.67074314 503.82812023 76.6827507 C504.84936471 76.67135791 504.84936471 76.67135791 505.89124039 76.65973496 C510.85985326 76.71363942 515.25897607 77.73651379 519.64453125 80.0546875 C520.80988403 81.36312622 520.80988403 81.36312622 521.9987793 82.69799805 C526.00506842 86.26657873 529.7797802 85.78304042 534.9765625 85.76171875 C535.96830978 85.77684006 536.96005707 85.79196136 537.9818573 85.80754089 C541.1404797 85.85042952 544.29814664 85.85925725 547.45703125 85.8671875 C549.60223896 85.89033082 551.74742394 85.91569581 553.89257812 85.94335938 C559.14323822 86.00622276 564.39352477 86.04114794 569.64453125 86.0546875 C569.63786942 85.18295898 569.63120758 84.31123047 569.62434387 83.41308594 C569.56408803 75.17456697 569.51848347 66.93612264 569.48909473 58.69743347 C569.47347745 54.46241816 569.45231171 50.22758582 569.41821289 45.99267578 C569.38547818 41.90130835 569.36764865 37.81011628 569.35989952 33.71862793 C569.35438123 32.16220339 569.34360556 30.60578782 569.32734108 29.04943848 C569.14888498 11.25595146 569.14888498 11.25595146 574.328125 5.03125 C574.90691406 4.58523437 575.48570312 4.13921875 576.08203125 3.6796875 C576.65824219 3.21820313 577.23445312 2.75671875 577.828125 2.28125 C583.34314003 -1.44286767 588.08448502 -1.6549985 594.64453125 -0.9453125 C600.08061016 0.52289343 604.11542944 3.68316824 607.38278198 8.21841431 C609.97613053 14.04797581 609.50738944 20.65239468 609.49647713 26.93376732 C609.49212298 29.63772142 609.52409085 32.33917665 609.56504822 35.0428009 C609.64511878 40.77584952 609.67788458 46.50868964 609.70703125 52.2421875 C609.74525465 58.89959246 609.80296552 65.55605525 609.89941216 72.2128849 C609.92926655 74.87265341 609.92891872 77.53129956 609.92701721 80.19120789 C609.94613449 81.82304538 609.96656663 83.45486819 609.98852539 85.08666992 C609.97982422 85.82288574 609.97112305 86.55910156 609.9621582 87.31762695 C610.04874202 91.26512407 610.49704407 92.88042641 613.08396912 95.93696594 C614.35144737 96.98523811 614.35144737 96.98523811 615.64453125 98.0546875 C626.86962304 110.84481612 629.64453125 125.32800291 629.64453125 142.0546875 C405.90453125 142.0546875 182.16453125 142.0546875 -48.35546875 142.0546875 C-48.35546875 123.33266294 -44.40635238 108.70389863 -31.2734375 94.84765625 C-29.35546875 93.0546875 -29.35546875 93.0546875 -27.35546875 92.0546875 C-27.35182312 91.053237 -27.34817749 90.0517865 -27.34442139 89.01998901 C-27.30745108 79.57389989 -27.24965616 70.12813615 -27.17156601 60.68229485 C-27.13208729 55.82626892 -27.09990074 50.97042443 -27.08447266 46.11425781 C-27.06930869 41.42616271 -27.03486775 36.73856643 -26.98715973 32.05069351 C-26.97234325 30.26381902 -26.96442758 28.47687331 -26.9635849 26.68993759 C-26.96121425 24.18321549 -26.93412824 21.67787079 -26.90136719 19.17138672 C-26.90639755 18.43554855 -26.91142792 17.69971039 -26.91661072 16.9415741 C-26.81402519 11.85540348 -25.5263124 8.98935527 -22.35546875 5.0546875 C-15.8768783 -0.77604391 -8.52111554 -3.41975118 0 0 Z " transform="translate(222.35546875,153.9453125)" style="fill: rgb(143, 162, 173);"/>
  <path d="M0 0 C0.91092911 -0.01377182 1.82185822 -0.02754364 2.76039124 -0.04173279 C4.68256605 -0.0649525 6.60482046 -0.08224446 8.52709961 -0.09399414 C11.46031387 -0.1209802 14.3899549 -0.1959436 17.32226562 -0.27148438 C19.19398626 -0.28813814 21.06573526 -0.30190579 22.9375 -0.3125 C23.80954575 -0.34235489 24.68159149 -0.37220978 25.58006287 -0.40296936 C29.17036187 -0.3771547 31.56675415 -0.34672315 34.41600037 1.97212219 C49.9056368 19.75747301 47.21113323 52.89073137 48.80541992 75.22802734 C48.92880737 76.93273193 48.92880737 76.93273193 49.0546875 78.671875 C49.12276611 79.64922607 49.19084473 80.62657715 49.26098633 81.63354492 C49.63635914 85.47785724 50.34373542 89.22555177 51.1328125 93.00390625 C51.54916474 95.52627323 51.60350608 97.88967937 51.53515625 100.44140625 C53.18515625 100.44140625 54.83515625 100.44140625 56.53515625 100.44140625 C56.96680746 105.97289405 57.39388965 111.5047095 57.81689453 117.03686523 C57.96117217 118.91554084 58.10665889 120.79412403 58.25341797 122.67260742 C58.46516184 125.38566576 58.67243498 128.09903591 58.87890625 130.8125 C58.94452759 131.6409996 59.01014893 132.46949921 59.07775879 133.32310486 C59.48224382 138.7116607 59.59201469 144.03748553 59.53515625 149.44140625 C56.56515625 149.44140625 53.59515625 149.44140625 50.53515625 149.44140625 C50.5815625 150.78203125 50.62796875 152.12265625 50.67578125 153.50390625 C50.99127107 167.39273894 50.14651238 181.00734828 48.78515625 194.81640625 C48.70656372 195.64769043 48.62797119 196.47897461 48.54699707 197.33544922 C44.55892995 238.94257415 44.55892995 238.94257415 33.53515625 249.44140625 C22.52286311 255.08184908 0.47218039 254.30543329 -11.46484375 251.23828125 C-18.6266432 248.38475178 -21.97939454 242.74176464 -25.12109375 235.95703125 C-27.67234057 229.28225759 -29.1201784 222.44448522 -30.46484375 215.44140625 C-30.59987305 214.77447754 -30.73490234 214.10754883 -30.87402344 213.42041016 C-36.70903061 184.05087404 -36.9575873 153.47747689 -36.78741455 123.64916992 C-36.77388181 120.43051002 -36.77927823 117.21198574 -36.78427601 113.99330997 C-36.81141888 90.87521354 -36.36093423 67.75369302 -32.65234375 44.87890625 C-32.48202637 43.8122876 -32.31170898 42.74566895 -32.13623047 41.64672852 C-29.8352574 27.91855574 -27.38022587 13.97067217 -16.90234375 4.00390625 C-11.29934825 0.41224247 -6.50064922 0.0865455 0 0 Z " fill="#3E3E3F" transform="translate(191.46484375,1101.55859375)"/>
  <path d="M0 0 C0.81598663 -0.00145523 1.63197327 -0.00291046 2.47268677 -0.00440979 C4.19227684 -0.00275616 5.91188254 0.00874493 7.63134766 0.02954102 C10.24316341 0.05843171 12.85293757 0.05015168 15.46484375 0.03710938 C17.1432389 0.04334999 18.82162771 0.05174346 20.5 0.0625 C21.271091 0.05956436 22.04218201 0.05662872 22.8366394 0.05360413 C28.9761247 0.15872344 34.50931835 1.31602049 39.51953125 5.1171875 C63.80560729 33.56309521 58.74921665 88.5085007 58.57843018 123.75494385 C58.56748709 126.60763361 58.56800551 129.46027734 58.56844902 132.31298447 C58.56728032 160.16299342 58.56728032 160.16299342 57.3828125 173.49609375 C57.0528125 173.49609375 56.7228125 173.49609375 56.3828125 173.49609375 C56.3828125 171.51609375 56.3828125 169.53609375 56.3828125 167.49609375 C36.2528125 167.49609375 16.1228125 167.49609375 -4.6171875 167.49609375 C-4.5965625 160.93734375 -4.5759375 154.37859375 -4.5546875 147.62109375 C-4.54793624 111.47347936 -6.19256542 75.62669444 -12.6796875 39.99609375 C-12.80338715 39.30949677 -12.92708679 38.62289978 -13.05453491 37.91549683 C-14.35108961 30.81631965 -15.81883436 24.15506438 -18.6171875 17.49609375 C-19.85820671 13.77303612 -19.24497569 12.99602998 -17.5546875 9.55859375 C-17.15121094 8.70394531 -16.74773438 7.84929687 -16.33203125 6.96875 C-12.02552116 0.75913522 -7.01188058 -0.10162212 0 0 Z " fill="#3E3E3E" transform="translate(814.6171875,1101.50390625)"/>
  <path d="M0 0 C0.99 0.495 0.99 0.495 2 1 C4.69584315 9.40726323 5.69661415 18.24929556 6.5625 27 C6.74800415 28.78458618 6.74800415 28.78458618 6.93725586 30.60522461 C7.95833516 40.76752135 8.68664257 50.94596531 9.26586914 61.14257812 C9.64429794 67.4083225 10.30167458 73.4313753 11.59545898 79.57788086 C12.01591693 82.09529986 12.06846609 84.45254998 12 87 C13.65 87 15.3 87 17 87 C17.43165121 92.5314878 17.8587334 98.06330325 18.28173828 103.59545898 C18.42601592 105.47413459 18.57150264 107.35271778 18.71826172 109.23120117 C18.93000559 111.94425951 19.13727873 114.65762966 19.34375 117.37109375 C19.40937134 118.19959335 19.47499268 119.02809296 19.54260254 119.88169861 C19.94708757 125.27025445 20.05685844 130.59607928 20 136 C17.03 136 14.06 136 11 136 C11.04640625 137.340625 11.0928125 138.68125 11.140625 140.0625 C11.45611482 153.95133269 10.61135613 167.56594203 9.25 181.375 C9.17140747 182.20628418 9.09281494 183.03756836 9.01184082 183.89404297 C5.0237737 225.5011679 5.0237737 225.5011679 -6 236 C-17.01229314 241.64044283 -39.06297586 240.86402704 -51 237.796875 C-58.16179945 234.94334553 -61.51455079 229.30035839 -64.65625 222.515625 C-67.20608022 215.84455757 -68.67296317 209.00355387 -70 202 C-70.14034668 201.2692627 -70.28069336 200.53852539 -70.42529297 199.78564453 C-74.42389823 178.37968352 -75.40230077 156.73352538 -75 135 C-74.67 135 -74.34 135 -74 135 C-74 141.27 -74 147.54 -74 154 C-54.53 153.67 -35.06 153.34 -15 153 C-15.061875 144.9975 -15.12375 136.995 -15.1875 128.75 C-15.23936342 107.0032682 -14.61780875 85.59153892 -12 64 C-11.86564545 62.8894223 -11.86564545 62.8894223 -11.72857666 61.75640869 C-6.33807668 17.74082652 -6.33807668 17.74082652 0 0 Z " fill="#272727" transform="translate(231,1115)"/>
  <path d="M0 0 C3.85816811 2.57211208 4.01156229 4.95802479 4.875 9.25 C5.03863037 10.0322998 5.20226074 10.81459961 5.37084961 11.62060547 C5.93810503 14.40954517 6.47315467 17.20314441 7 20 C7.20415527 21.07991211 7.40831055 22.15982422 7.61865234 23.27246094 C13.58226471 55.44970429 15.99025478 87.71818929 16.125 120.4375 C16.12975342 121.32308594 16.13450684 122.20867187 16.1394043 123.12109375 C16.11651134 132.4546389 15.49254376 141.64166861 15 151 C35.13 151 55.26 151 76 151 C76 162.1561216 75.80037916 172.44153307 74.3125 183.375 C74.22385681 184.039552 74.13521362 184.704104 74.04388428 185.38879395 C69.32184295 220.47011098 69.32184295 220.47011098 58.5 231.5625 C51.21166924 235.75329019 43.2486624 236.18251537 35 236.125 C34.26740967 236.12016602 33.53481934 236.11533203 32.7800293 236.11035156 C30.51961687 236.08602251 28.2600626 236.04631478 26 236 C25.29053223 235.98743164 24.58106445 235.97486328 23.85009766 235.96191406 C21.83685822 235.91561097 19.82454321 235.83342134 17.8125 235.75 C16.64332031 235.70359375 15.47414063 235.6571875 14.26953125 235.609375 C9.43075536 234.7075243 6.31196368 232.60351116 3.20703125 228.80859375 C-9.65727689 206.93566647 -9.04903046 176.10912436 -10.125 151.375 C-10.21170647 149.48174634 -10.2989435 147.58851691 -10.38671875 145.6953125 C-10.59723303 141.13046302 -10.80067048 136.56535098 -11 132 C-13.97 131.67 -16.94 131.34 -20 131 C-19.50775966 120.13185141 -18.84394675 109.28432946 -18 98.4375 C-17.9170166 97.33736572 -17.8340332 96.23723145 -17.74853516 95.10375977 C-17.62551025 93.56546509 -17.62551025 93.56546509 -17.5 91.99609375 C-17.4278125 91.08013428 -17.355625 90.1641748 -17.28125 89.22045898 C-17 87 -17 87 -16 85 C-13.67843403 84.59270772 -11.3431213 84.25561323 -9 84 C-8.26205565 76.50703542 -7.7495734 69.02750325 -7.38671875 61.5078125 C-7.27223989 59.31506459 -7.1569798 57.12235736 -7.04101562 54.9296875 C-6.86302508 51.54324079 -6.68900897 48.15685755 -6.52856445 44.76953125 C-4.60695219 4.60695219 -4.60695219 4.60695219 0 0 Z " fill="#272727" transform="translate(795,1118)"/>
  <path d="M0 0 C0.66 0.33 1.32 0.66 2 1 C4.69584315 9.40726323 5.69661415 18.24929556 6.5625 27 C6.68616943 28.18972412 6.80983887 29.37944824 6.93725586 30.60522461 C7.95833516 40.76752135 8.68664257 50.94596531 9.26586914 61.14257812 C9.64429794 67.4083225 10.30167458 73.4313753 11.59545898 79.57788086 C12.01591693 82.09529986 12.06846609 84.45254998 12 87 C13.65 87 15.3 87 17 87 C17.43165121 92.5314878 17.8587334 98.06330325 18.28173828 103.59545898 C18.42601592 105.47413459 18.57150264 107.35271778 18.71826172 109.23120117 C18.93000559 111.94425951 19.13727873 114.65762966 19.34375 117.37109375 C19.40937134 118.19959335 19.47499268 119.02809296 19.54260254 119.88169861 C19.94708757 125.27025445 20.05685844 130.59607928 20 136 C17.03 136 14.06 136 11 136 C11.04640625 137.340625 11.0928125 138.68125 11.140625 140.0625 C11.45611482 153.95133269 10.61135613 167.56594203 9.25 181.375 C9.17140747 182.20628418 9.09281494 183.03756836 9.01184082 183.89404297 C8.1275385 193.11988494 6.91615595 202.20727485 5.046875 211.2890625 C4.81173187 212.44672623 4.81173187 212.44672623 4.57183838 213.6277771 C3.53814402 218.3841689 2.05005872 222.58398384 0 227 C-0.66 227 -1.32 227 -2 227 C-5.62176727 219.16564066 -7.26914694 211.42948019 -8.625 202.9375 C-8.83664795 201.65125732 -9.0482959 200.36501465 -9.26635742 199.03979492 C-9.86238254 195.36241493 -10.4375343 191.68264795 -11 188 C-11.13712402 187.10635742 -11.27424805 186.21271484 -11.41552734 185.29199219 C-13.01658032 174.51141825 -13.22891956 163.87367905 -13 153 C-13.66 153 -14.32 153 -15 153 C-15.33980888 123.20880396 -15.59041131 93.61350993 -12 64 C-11.9104303 63.25961487 -11.8208606 62.51922974 -11.72857666 61.75640869 C-6.33807668 17.74082652 -6.33807668 17.74082652 0 0 Z " fill="#181918" transform="translate(231,1115)"/>
  <path d="M0 0 C3.85816811 2.57211208 4.01156229 4.95802479 4.875 9.25 C5.03863037 10.0322998 5.20226074 10.81459961 5.37084961 11.62060547 C5.93810503 14.40954517 6.47315467 17.20314441 7 20 C7.20415527 21.07991211 7.40831055 22.15982422 7.61865234 23.27246094 C12.8193979 51.33358313 15.44694606 79.46241676 16 108 C16.02191406 108.95648437 16.04382813 109.91296875 16.06640625 110.8984375 C16.57566947 135.68258072 14.75524337 160.43338478 12.125 185.0625 C12.04995239 185.79287476 11.97490479 186.52324951 11.89758301 187.27575684 C11.0506114 195.40456795 9.84637215 203.34380686 7.9921875 211.30859375 C7.82655304 212.02056412 7.66091858 212.73253448 7.49026489 213.46607971 C6.65214792 216.8886363 5.6272015 219.88457026 4 223 C3.83249586 225.66709069 3.83249586 225.66709069 4 228 C-6.72358194 218.14026216 -6.2808106 194.62808078 -8 181 C-8.16733643 179.77587402 -8.33467285 178.55174805 -8.50708008 177.29052734 C-9.08855262 172.61981123 -9.32318064 167.94992213 -9.53515625 163.25 C-9.57813339 162.35128174 -9.62111053 161.45256348 -9.66539001 160.52661133 C-9.80064228 157.68453505 -9.93164033 154.84228157 -10.0625 152 C-10.15401468 150.06118458 -10.2458088 148.12238232 -10.33789062 146.18359375 C-10.56182459 141.45587527 -10.78194607 136.72799318 -11 132 C-13.97 131.67 -16.94 131.34 -20 131 C-19.50775966 120.13185141 -18.84394675 109.28432946 -18 98.4375 C-17.9170166 97.33736572 -17.8340332 96.23723145 -17.74853516 95.10375977 C-17.62551025 93.56546509 -17.62551025 93.56546509 -17.5 91.99609375 C-17.4278125 91.08013428 -17.355625 90.1641748 -17.28125 89.22045898 C-17 87 -17 87 -16 85 C-13.67843403 84.59270772 -11.3431213 84.25561323 -9 84 C-8.26205565 76.50703542 -7.7495734 69.02750325 -7.38671875 61.5078125 C-7.27223989 59.31506459 -7.1569798 57.12235736 -7.04101562 54.9296875 C-6.86302508 51.54324079 -6.68900897 48.15685755 -6.52856445 44.76953125 C-4.60695219 4.60695219 -4.60695219 4.60695219 0 0 Z " fill="#181918" transform="translate(795,1118)"/>
  <path d="M0 0 C1.12551302 -0.00346153 1.12551302 -0.00346153 2.27376369 -0.006993 C4.79621081 -0.01230043 7.31840429 -0.00330275 9.84083843 0.00558662 C11.66419128 0.00471471 13.48754388 0.00296399 15.31089514 0.00040829 C20.32772441 -0.00407201 25.34446858 0.00394784 30.361287 0.01396441 C35.76888427 0.02258677 41.17647658 0.01967961 46.58407879 0.01815987 C55.95524836 0.01711025 65.32639011 0.02339491 74.69755268 0.03463554 C88.24674292 0.05087713 101.79591969 0.05609718 115.3451186 0.05861153 C137.32682837 0.06299074 159.30852331 0.07630597 181.29022503 0.09521675 C202.64569339 0.1135697 224.00115669 0.12772907 245.35663128 0.13623238 C247.33055843 0.13702055 247.33055843 0.13702055 249.34436289 0.13782464 C255.94598512 0.14043468 262.54760737 0.1429621 269.14922965 0.14544845 C323.93199681 0.16618798 378.71474791 0.20141967 433.49750042 0.24609566 C429.84867937 2.57264233 426.36931068 2.5299459 422.18051815 2.50780869 C421.43808347 2.51180475 420.6956488 2.51580081 419.9307161 2.51991796 C417.42916814 2.53093502 414.92783981 2.52768496 412.42627239 2.52456856 C410.62027986 2.52956899 408.81428956 2.53544404 407.00830245 2.54212129 C402.0348407 2.55796584 397.06143537 2.56135442 392.08795142 2.56276989 C386.72871866 2.56645618 381.36951714 2.58160776 376.01030254 2.5953846 C366.72152564 2.61768555 357.43275981 2.63268177 348.14396191 2.64275169 C334.71383325 2.65732172 321.28374314 2.6828538 307.85363707 2.71108298 C286.06550145 2.7565815 264.2773603 2.79318364 242.48919964 2.82422066 C221.32089546 2.85439368 200.15260486 2.8887382 178.98431683 2.92871284 C177.02791757 2.93240517 177.02791757 2.93240517 175.03199509 2.93617208 C168.48903836 2.94854644 161.94608178 2.96100302 155.40312529 2.97350049 C101.10126916 3.0771141 46.79939615 3.16615449 -7.50249958 3.24609566 C-1.89249958 3.57609566 3.71750042 3.90609566 9.49750042 4.24609566 C9.16750042 4.90609566 8.83750042 5.56609566 8.49750042 6.24609566 C-1.89749958 6.74109566 -1.89749958 6.74109566 -12.50249958 7.24609566 C-11.84249958 6.91609566 -11.18249958 6.58609566 -10.50249958 6.24609566 C-10.50249958 5.58609566 -10.50249958 4.92609566 -10.50249958 4.24609566 C-11.16249958 4.24609566 -11.82249958 4.24609566 -12.50249958 4.24609566 C-12.50249958 3.58609566 -12.50249958 2.92609566 -12.50249958 2.24609566 C-8.31266194 0.21497632 -4.57113302 -0.03458742 0 0 Z " transform="translate(302.5024995803833,232.75390434265137)" style="fill: rgb(196, 198, 200);" id="object-0"/>
  <path d="M0 0 C0.33 0 0.66 0 1 0 C1 6.27 1 12.54 1 19 C18.82 19.33 36.64 19.66 55 20 C55 20.33 55 20.66 55 21 C37.51 21 20.02 21 2 21 C2 25.29 2 29.58 2 34 C1.67 34 1.34 34 1 34 C0.15096673 26.24575135 -0.12751701 18.60953932 -0.0625 10.8125 C-0.05798828 9.76513672 -0.05347656 8.71777344 -0.04882812 7.63867188 C-0.03720124 5.09238464 -0.02086281 2.5462254 0 0 Z " fill="#191918" transform="translate(156,1250)"/>
  <path d="M0 0 C0.33 0 0.66 0 1 0 C1.33 3.3 1.66 6.6 2 10 C2.33 10 2.66 10 3 10 C3 21.55 3 33.1 3 45 C2.67 45 2.34 45 2 45 C0.24412872 29.94967477 -0.25710247 15.1472912 0 0 Z " fill="#364E27" transform="translate(243,1123)"/>
  <path d="M0 0 C2 2 2 2 2.1953125 3.9453125 C2.13020833 5.96354167 2.06510417 7.98177083 2 10 C1.67 10 1.34 10 1 10 C1 8.02 1 6.04 1 4 C-19.13 4 -39.26 4 -60 4 C-60 3.67 -60 3.34 -60 3 C-40.53 3 -21.06 3 -1 3 C-0.67 2.01 -0.34 1.02 0 0 Z " fill="#4A4B4B" transform="translate(870,1265)"/>
  <path d="M0 0 C0.66 0.33 1.32 0.66 2 1 C2.02689449 3.95839355 2.04678741 6.91654427 2.0625 9.875 C2.07087891 10.71675781 2.07925781 11.55851563 2.08789062 12.42578125 C2.09111328 13.23144531 2.09433594 14.03710938 2.09765625 14.8671875 C2.10289307 15.61081543 2.10812988 16.35444336 2.11352539 17.12060547 C2 19 2 19 1 21 C0.76725791 23.87910588 0.58027243 26.74146495 0.4375 29.625 C0.39431641 30.42679688 0.35113281 31.22859375 0.30664062 32.0546875 C0.20048543 34.0362511 0.09973145 36.01810271 0 38 C-0.33 38 -0.66 38 -1 38 C-1.02933699 33.54168078 -1.04691123 29.08338682 -1.0625 24.625 C-1.07087891 23.37332031 -1.07925781 22.12164062 -1.08789062 20.83203125 C-1.10624691 13.8199299 -0.90041679 6.95767386 0 0 Z " fill="#EBF4F4" transform="translate(235,167)"/>
  <path d="M0 0 C0.33 0 0.66 0 1 0 C1.66 5.61 2.32 11.22 3 17 C2.34 17 1.68 17 1 17 C1 20.96 1 24.92 1 29 C0.67 29 0.34 29 0 29 C-2.19256772 19.56847856 -1.06997568 9.53424757 0 0 Z " fill="#576F45" transform="translate(252,1239)"/>
  <path d="M0 0 C0.99 0 1.98 0 3 0 C3.33 7.26 3.66 14.52 4 22 C3.34 22.33 2.68 22.66 2 23 C1.67 19.7 1.34 16.4 1 13 C0.67 13 0.34 13 0 13 C0 8.71 0 4.42 0 0 Z " fill="#242424" transform="translate(236,1157)"/>
  <path d="M0 0 C0.33 0 0.66 0 1 0 C1.33 3.3 1.66 6.6 2 10 C2.33 10 2.66 10 3 10 C3 12.64 3 15.28 3 18 C2.34 18 1.68 18 1 18 C1 19.98 1 21.96 1 24 C0.67 24 0.34 24 0 24 C0 16.08 0 8.16 0 0 Z " fill="#425834" transform="translate(243,1123)"/>
  <path d="M0 0 C0.33 0.66 0.66 1.32 1 2 C1.66 2 2.32 2 3 2 C3 2.66 3 3.32 3 4 C4.32 4.33 5.64 4.66 7 5 C6.34 5.66 5.68 6.32 5 7 C5.27034634 9.43717258 5.27034634 9.43717258 6 12 C6.2784375 13.1446875 6.2784375 13.1446875 6.5625 14.3125 C6.706875 14.869375 6.85125 15.42625 7 16 C4.49546085 13.75380873 3.16425844 11.63373662 1.8125 8.5625 C1.46832031 7.80066406 1.12414062 7.03882813 0.76953125 6.25390625 C0 4 0 4 0 0 Z " fill="#304426" transform="translate(257,1314)"/>
  <path d="M0 0 C0.33 0 0.66 0 1 0 C1.33 2.64 1.66 5.28 2 8 C5.63 8 9.26 8 13 8 C13 8.33 13 8.66 13 9 C9.04 9 5.08 9 1 9 C0.67 11.31 0.34 13.62 0 16 C-0.33 16 -0.66 16 -1 16 C-1.02712153 14.083412 -1.04645097 12.1667127 -1.0625 10.25 C-1.07410156 9.18265625 -1.08570313 8.1153125 -1.09765625 7.015625 C-1.01510087 4.46631499 -0.74617558 2.42066409 0 0 Z " fill="#127EBF" transform="translate(175,280)"/>
  <path d="M0 0 C0.66 0 1.32 0 2 0 C2 4.95 2 9.9 2 15 C1.01 15.33 0.02 15.66 -1 16 C-1.02712153 14.083412 -1.04645097 12.1667127 -1.0625 10.25 C-1.07410156 9.18265625 -1.08570313 8.1153125 -1.09765625 7.015625 C-1.01510087 4.46631499 -0.74617558 2.42066409 0 0 Z " fill="#4B4B4B" transform="translate(871,1244)"/>
  <path d="M0 0 C0.33 0 0.66 0 1 0 C1 4.62 1 9.24 1 14 C-1.5 11.6875 -1.5 11.6875 -4 9 C-4 8.01 -4 7.02 -4 6 C-3.01 6 -2.02 6 -1 6 C-0.67 4.02 -0.34 2.04 0 0 Z " fill="#2C3B23" transform="translate(190,429)"/>
  <path d="M0 0 C6.61574272 -0.55131189 11.44185468 0.24007817 17 4 C18.02634699 4.9729398 19.03463433 5.96652571 20 7 C19.67 7.66 19.34 8.32 19 9 C18.566875 8.505 18.13375 8.01 17.6875 7.5 C16.00259517 5.66781808 16.00259517 5.66781808 13 6 C12.34 5.01 11.68 4.02 11 3 C8.35308332 2.19907746 8.35308332 2.19907746 5.375 1.8125 C3.87066406 1.57466797 3.87066406 1.57466797 2.3359375 1.33203125 C1.56507813 1.22246094 0.79421875 1.11289063 0 1 C0 0.67 0 0.34 0 0 Z " fill="#1779B6" transform="translate(808,153)"/>
  <path d="M0 0 C0.33 0.66 0.66 1.32 1 2 C1.66 2 2.32 2 3 2 C2.34 3.32 1.68 4.64 1 6 C-0.32 6 -1.64 6 -3 6 C-3 3 -3 3 -1.5 1.3125 C-0.7575 0.6628125 -0.7575 0.6628125 0 0 Z " fill="#1686CA" transform="translate(191,249)"/>
  <path d="M0 0 C0.33 0 0.66 0 1 0 C2.03590199 5.05002222 2.10251672 9.87416389 2 15 C1.690625 14.360625 1.38125 13.72125 1.0625 13.0625 C0.1654837 11.06389179 0.1654837 11.06389179 -1 10 C-0.91036938 8.30858344 -0.75422324 6.62040398 -0.5625 4.9375 C-0.46066406 4.01839844 -0.35882813 3.09929687 -0.25390625 2.15234375 C-0.17011719 1.44207031 -0.08632812 0.73179688 0 0 Z " fill="#61794E" transform="translate(250,1217)"/>
  <path d="M0 0 C0.99 0 1.98 0 3 0 C2.25 7.75 2.25 7.75 0 10 C-0.95024979 6.30458414 -0.95024979 3.69541586 0 0 Z " fill="#232423" transform="translate(792,1128)"/>
  <path d="M0 0 C0.66 0.33 1.32 0.66 2 1 C2.99716532 4.98866127 3.0502717 8.0323069 2 12 C0.14404895 8.53555803 -1.33300647 5.7126047 -0.5625 1.75 C-0.376875 1.1725 -0.19125 0.595 0 0 Z " fill="#202020" transform="translate(231,1115)"/>
  <path d="M0 0 C0.99 0.33 1.98 0.66 3 1 C3 3.97 3 6.94 3 10 C2.01 9.34 1.02 8.68 0 8 C-0.40843923 5.28796348 -0.13336867 2.7562858 0 0 Z " fill="#6F845B" transform="translate(254,1291)"/>
  <path d="M0 0 C0.99 0.33 1.98 0.66 3 1 C3 3.97 3 6.94 3 10 C2.01 9.67 1.02 9.34 0 9 C0 6.03 0 3.06 0 0 Z " fill="#748863" transform="translate(239,1080)"/>
  <path d="M0 0 C2.71435596 0.93305986 3.78043163 1.62673377 5.25 4.125 C5.4975 4.74375 5.745 5.3625 6 6 C5.4225 5.690625 4.845 5.38125 4.25 5.0625 C2.15705816 4.07416636 0.25464725 3.4831387 -2 3 C-2 2.34 -2 1.68 -2 1 C-1.34 0.67 -0.68 0.34 0 0 Z " fill="#1485CA" transform="translate(835,251)"/>
  <path d="M0 0 C2 2 2 2 2.3125 4.9375 C1.96315081 8.36112209 1.45706557 8.82818742 -1 11 C-1.02688151 9.35425434 -1.04634123 7.70838587 -1.0625 6.0625 C-1.07410156 5.14597656 -1.08570313 4.22945312 -1.09765625 3.28515625 C-1 1 -1 1 0 0 Z " fill="#465B3C" transform="translate(812,734)"/>
  <path d="M0 0 C0.66 0.33 1.32 0.66 2 1 C2.37211538 7.57403846 2.37211538 7.57403846 0.48828125 9.73046875 C-0.00285156 10.14941406 -0.49398437 10.56835938 -1 11 C-1.02688151 9.35425434 -1.04634123 7.70838587 -1.0625 6.0625 C-1.07410156 5.14597656 -1.08570313 4.22945313 -1.09765625 3.28515625 C-1 1 -1 1 0 0 Z " fill="#485E3E" transform="translate(830,500)"/>
  <path d="M0 0 C2 2 2 2 2.1953125 3.9453125 C2.13020833 5.96354167 2.06510417 7.98177083 2 10 C1.01 9.67 0.02 9.34 -1 9 C-1.125 2.25 -1.125 2.25 0 0 Z " fill="#738A62" transform="translate(215,759)"/>
  <path d="M0 0 C0.66 0 1.32 0 2 0 C2 2.97 2 5.94 2 9 C1.01 8.34 0.02 7.68 -1 7 C-1.25 3.9375 -1.25 3.9375 -1 1 C-0.67 0.67 -0.34 0.34 0 0 Z " fill="#70885C" transform="translate(235,1016)"/>
  <path d="M0 0 C0.66 0 1.32 0 2 0 C2.36923077 5.53846154 2.36923077 5.53846154 0.5 7.875 C-0.2425 8.431875 -0.2425 8.431875 -1 9 C-1.09765625 2.84765625 -1.09765625 2.84765625 -1 1 C-0.67 0.67 -0.34 0.34 0 0 Z " fill="#45583B" transform="translate(829,514)"/>
  <path d="M0 0 C3.24208567 0.35049575 4.61527704 0.56221181 6.8125 3.0625 C7.204375 3.701875 7.59625 4.34125 8 5 C6.35 4.67 4.7 4.34 3 4 C2.67 3.01 2.34 2.02 2 1 C1.34 0.67 0.68 0.34 0 0 Z " fill="#1480C4" transform="translate(737,233)"/>
</svg>